<?xml version="1.0" encoding="UTF-8" standalone="no"?>
<svg
   xmlns:dc="http://purl.org/dc/elements/1.1/"
   xmlns:cc="http://creativecommons.org/ns#"
   xmlns:rdf="http://www.w3.org/1999/02/22-rdf-syntax-ns#"
   xmlns:svg="http://www.w3.org/2000/svg"
   xmlns="http://www.w3.org/2000/svg"
   xmlns:sodipodi="http://sodipodi.sourceforge.net/DTD/sodipodi-0.dtd"
   xmlns:inkscape="http://www.inkscape.org/namespaces/inkscape"
   version="1.1"
   id="Capa_1"
   x="0px"
   y="0px"
   width="531.069px"
   height="531.069px"
   viewBox="0 0 531.069 531.069"
   style="enable-background:new 0 0 531.069 531.069;"
   xml:space="preserve"
   sodipodi:docname="thermometer2_white.svg"
   inkscape:version="1.0.1 (3bc2e813f5, 2020-09-07)"
   inkscape:export-filename="C:\Projects\Med Stat\web-med-stat\logo\thermometer1_white.png"
   inkscape:export-xdpi="62.221004"
   inkscape:export-ydpi="62.221004"><metadata
   id="metadata915"><rdf:RDF><cc:Work
       rdf:about=""><dc:format>image/svg+xml</dc:format><dc:type
         rdf:resource="http://purl.org/dc/dcmitype/StillImage" /><dc:title></dc:title></cc:Work></rdf:RDF></metadata><defs
   id="defs913" /><sodipodi:namedview
   pagecolor="#ffff9e"
   bordercolor="#666666"
   borderopacity="1"
   objecttolerance="10"
   gridtolerance="10"
   guidetolerance="10"
   inkscape:pageopacity="0.31764706"
   inkscape:pageshadow="2"
   inkscape:window-width="1822"
   inkscape:window-height="1051"
   id="namedview911"
   showgrid="false"
   inkscape:zoom="1.384001"
   inkscape:cx="398.409"
   inkscape:cy="285.02434"
   inkscape:window-x="-9"
   inkscape:window-y="-9"
   inkscape:window-maximized="1"
   inkscape:current-layer="Capa_1" />

<g
   id="g880"
   transform="matrix(0.35355339,-0.35355339,0.35355339,0.35355339,265.53291,81.446321)">
</g>
<g
   id="g882"
   transform="matrix(0.35355339,-0.35355339,0.35355339,0.35355339,265.53291,81.446321)">
</g>
<g
   id="g884"
   transform="matrix(0.35355339,-0.35355339,0.35355339,0.35355339,265.53291,81.446321)">
</g>
<g
   id="g886"
   transform="matrix(0.35355339,-0.35355339,0.35355339,0.35355339,265.53291,81.446321)">
</g>
<g
   id="g888"
   transform="matrix(0.35355339,-0.35355339,0.35355339,0.35355339,265.53291,81.446321)">
</g>
<g
   id="g890"
   transform="matrix(0.35355339,-0.35355339,0.35355339,0.35355339,265.53291,81.446321)">
</g>
<g
   id="g892"
   transform="matrix(0.35355339,-0.35355339,0.35355339,0.35355339,265.53291,81.446321)">
</g>
<g
   id="g894"
   transform="matrix(0.35355339,-0.35355339,0.35355339,0.35355339,265.53291,81.446321)">
</g>
<g
   id="g896"
   transform="matrix(0.35355339,-0.35355339,0.35355339,0.35355339,265.53291,81.446321)">
</g>
<g
   id="g898"
   transform="matrix(0.35355339,-0.35355339,0.35355339,0.35355339,265.53291,81.446321)">
</g>
<g
   id="g900"
   transform="matrix(0.35355339,-0.35355339,0.35355339,0.35355339,265.53291,81.446321)">
</g>
<g
   id="g902"
   transform="matrix(0.35355339,-0.35355339,0.35355339,0.35355339,265.53291,81.446321)">
</g>
<g
   id="g904"
   transform="matrix(0.35355339,-0.35355339,0.35355339,0.35355339,265.53291,81.446321)">
</g>
<g
   id="g906"
   transform="matrix(0.35355339,-0.35355339,0.35355339,0.35355339,265.53291,81.446321)">
</g>
<g
   id="g908"
   transform="matrix(0.35355339,-0.35355339,0.35355339,0.35355339,265.53291,81.446321)">
</g>
<rect
   style="opacity:1;fill:none;stroke:#ffffff;stroke-width:11.0353;stroke-linejoin:round;stroke-miterlimit:4;stroke-dasharray:none;stroke-opacity:1"
   id="rect1486"
   width="319.49301"
   height="319.49301"
   x="220.61395"
   y="-154.7196"
   transform="rotate(45)" /><g
   id="g1531"
   transform="matrix(0.85483989,0,0,0.85483989,154.88361,149.34631)"
   style="fill:#ffffff;fill-opacity:1"><path
     d="M 236.896,38.375 V 51.229 H 187.088 V 38.375 Z m -20.887,28.014 h -28.921 v 12.854 h 28.921 z m -28.921,40.868 h 49.808 V 94.404 h -49.808 z m 28.921,15.168 h -28.921 v 12.854 h 28.921 z m -28.921,40.868 h 49.808 v -12.854 h -49.808 z m 7.764,73.24 c 0,35.881 -29.191,65.072 -65.072,65.072 -35.881,0 -65.072,-29.191 -65.072,-65.072 0,-23.252 12.211,-44.384 32.134,-56.074 V 32.938 C 96.843,14.775 111.618,0 129.78,0 c 18.162,0 32.938,14.775 32.938,32.938 V 180.46 c 19.923,11.677 32.134,32.815 32.134,56.073 z m -12.854,0 c 0,-19.73 -10.964,-37.565 -28.619,-46.53 l -3.515,-1.787 V 32.944 c 0,-11.08 -9.01,-20.084 -20.084,-20.084 -11.073,0 -20.084,9.004 -20.084,20.084 v 155.272 l -3.515,1.787 c -17.655,8.972 -28.619,26.806 -28.619,46.53 0,28.792 23.426,52.218 52.218,52.218 28.792,0 52.218,-23.426 52.218,-52.218 z m -10.707,0 c 0,22.886 -18.619,41.505 -41.511,41.505 -22.886,0 -41.505,-18.619 -41.505,-41.505 0,-18.76 12.674,-35.232 30.823,-40.058 l 2.384,-0.636 v -79.275 h 16.601 v 79.269 l 2.384,0.643 c 18.157,4.825 30.824,21.304 30.824,40.057 z m -39.454,-27.667 c -0.99,-4.396 -5.411,-7.288 -9.917,-6.26 -15.733,3.56 -26.723,17.32 -26.723,33.465 0,4.569 3.721,8.291 8.291,8.291 4.57,0 8.291,-3.721 8.291,-8.291 0,-8.207 5.797,-15.482 13.798,-17.288 4.447,-1.023 7.262,-5.47 6.26,-9.917 z"
     id="path1529"
     style="fill:#ffffff;fill-opacity:1" /></g><g
   id="g1533"
   transform="translate(201.07635,91.249343)" /><g
   id="g1535"
   transform="translate(201.07635,91.249343)" /><g
   id="g1537"
   transform="translate(201.07635,91.249343)" /><g
   id="g1539"
   transform="translate(201.07635,91.249343)" /><g
   id="g1541"
   transform="translate(201.07635,91.249343)" /><g
   id="g1543"
   transform="translate(201.07635,91.249343)" /><g
   id="g1545"
   transform="translate(201.07635,91.249343)" /><g
   id="g1547"
   transform="translate(201.07635,91.249343)" /><g
   id="g1549"
   transform="translate(201.07635,91.249343)" /><g
   id="g1551"
   transform="translate(201.07635,91.249343)" /><g
   id="g1553"
   transform="translate(201.07635,91.249343)" /><g
   id="g1555"
   transform="translate(201.07635,91.249343)" /><g
   id="g1557"
   transform="translate(201.07635,91.249343)" /><g
   id="g1559"
   transform="translate(201.07635,91.249343)" /><g
   id="g1561"
   transform="translate(201.07635,91.249343)" /></svg>
