<?xml version="1.0" encoding="UTF-8" standalone="no"?>
<svg
   xmlns:dc="http://purl.org/dc/elements/1.1/"
   xmlns:cc="http://creativecommons.org/ns#"
   xmlns:rdf="http://www.w3.org/1999/02/22-rdf-syntax-ns#"
   xmlns:svg="http://www.w3.org/2000/svg"
   xmlns="http://www.w3.org/2000/svg"
   xmlns:sodipodi="http://sodipodi.sourceforge.net/DTD/sodipodi-0.dtd"
   xmlns:inkscape="http://www.inkscape.org/namespaces/inkscape"
   version="1.1"
   id="Capa_1"
   x="0px"
   y="0px"
   width="531.069px"
   height="531.069px"
   viewBox="0 0 531.069 531.069"
   style="enable-background:new 0 0 531.069 531.069;"
   xml:space="preserve"
   sodipodi:docname="thermometer1_base.svg"
   inkscape:version="1.0.1 (3bc2e813f5, 2020-09-07)"><metadata
   id="metadata915"><rdf:RDF><cc:Work
       rdf:about=""><dc:format>image/svg+xml</dc:format><dc:type
         rdf:resource="http://purl.org/dc/dcmitype/StillImage" /><dc:title></dc:title></cc:Work></rdf:RDF></metadata><defs
   id="defs913" /><sodipodi:namedview
   pagecolor="#ffffff"
   bordercolor="#666666"
   borderopacity="1"
   objecttolerance="10"
   gridtolerance="10"
   guidetolerance="10"
   inkscape:pageopacity="0"
   inkscape:pageshadow="2"
   inkscape:window-width="1822"
   inkscape:window-height="1051"
   id="namedview911"
   showgrid="false"
   inkscape:zoom="1.384001"
   inkscape:cx="416.47257"
   inkscape:cy="285.02434"
   inkscape:window-x="-9"
   inkscape:window-y="-9"
   inkscape:window-maximized="1"
   inkscape:current-layer="Capa_1" />
<g
   id="g878"
   transform="matrix(0.35355339,-0.35355339,0.35355339,0.35355339,77.771664,269.20757)">
	<path
   d="m 512.446,18.617 c -24.819,-24.822 -65.196,-24.822 -90.027,0 L 100.146,340.899 c -17.836,17.832 -22.786,43.703 -14.978,66.059 -1.52,1.016 -2.974,2.192 -4.318,3.534 L 8.225,483.124 c -10.967,10.958 -10.967,28.75 0,39.708 10.974,10.982 28.75,10.982 39.724,0 l 72.625,-72.619 c 1.345,-1.348 2.512,-2.79 3.529,-4.315 22.366,7.803 48.235,2.867 66.07,-14.978 L 512.446,108.645 c 24.831,-24.817 24.831,-65.206 0,-90.028 z m -15.883,74.139 -74.9,74.901 -11.344,-11.354 -13.618,13.618 11.349,11.349 -43.881,43.882 -11.349,-11.349 -13.619,13.618 11.349,11.343 -48.415,48.418 -11.349,-11.349 -13.618,13.619 11.349,11.348 -49.928,49.935 -11.349,-11.349 -13.619,13.618 11.349,11.349 -50.685,50.68 c -12.534,12.536 -31.2,15.237 -46.429,8.197 -0.278,-1.058 -0.606,-2.109 -1.005,-3.139 L 450.413,96.533 c 4.391,-4.389 4.391,-11.494 0,-15.882 -4.387,-4.395 -11.491,-4.395 -15.889,0 L 110.963,404.215 c -1.023,-0.396 -2.069,-0.721 -3.136,-1.005 -7.04,-15.232 -4.333,-33.898 8.201,-46.435 L 438.307,34.505 c 16.06,-16.06 42.202,-16.06 58.256,0 16.06,16.057 16.06,42.191 0,58.251 z"
   id="path876" />
</g>
<g
   id="g880"
   transform="matrix(0.35355339,-0.35355339,0.35355339,0.35355339,265.53291,81.446321)">
</g>
<g
   id="g882"
   transform="matrix(0.35355339,-0.35355339,0.35355339,0.35355339,265.53291,81.446321)">
</g>
<g
   id="g884"
   transform="matrix(0.35355339,-0.35355339,0.35355339,0.35355339,265.53291,81.446321)">
</g>
<g
   id="g886"
   transform="matrix(0.35355339,-0.35355339,0.35355339,0.35355339,265.53291,81.446321)">
</g>
<g
   id="g888"
   transform="matrix(0.35355339,-0.35355339,0.35355339,0.35355339,265.53291,81.446321)">
</g>
<g
   id="g890"
   transform="matrix(0.35355339,-0.35355339,0.35355339,0.35355339,265.53291,81.446321)">
</g>
<g
   id="g892"
   transform="matrix(0.35355339,-0.35355339,0.35355339,0.35355339,265.53291,81.446321)">
</g>
<g
   id="g894"
   transform="matrix(0.35355339,-0.35355339,0.35355339,0.35355339,265.53291,81.446321)">
</g>
<g
   id="g896"
   transform="matrix(0.35355339,-0.35355339,0.35355339,0.35355339,265.53291,81.446321)">
</g>
<g
   id="g898"
   transform="matrix(0.35355339,-0.35355339,0.35355339,0.35355339,265.53291,81.446321)">
</g>
<g
   id="g900"
   transform="matrix(0.35355339,-0.35355339,0.35355339,0.35355339,265.53291,81.446321)">
</g>
<g
   id="g902"
   transform="matrix(0.35355339,-0.35355339,0.35355339,0.35355339,265.53291,81.446321)">
</g>
<g
   id="g904"
   transform="matrix(0.35355339,-0.35355339,0.35355339,0.35355339,265.53291,81.446321)">
</g>
<g
   id="g906"
   transform="matrix(0.35355339,-0.35355339,0.35355339,0.35355339,265.53291,81.446321)">
</g>
<g
   id="g908"
   transform="matrix(0.35355339,-0.35355339,0.35355339,0.35355339,265.53291,81.446321)">
</g>
<rect
   style="opacity:1;fill:none;stroke:#000000;stroke-width:11.0353;stroke-linejoin:round;stroke-miterlimit:4;stroke-dasharray:none"
   id="rect1486"
   width="319.49301"
   height="319.49301"
   x="220.61395"
   y="-154.7196"
   transform="rotate(45)" /></svg>
